<?xml version="1.0" encoding="UTF-8" standalone="no"?>
<!DOCTYPE svg PUBLIC "-//W3C//DTD SVG 1.1//EN"
 "http://www.w3.org/Graphics/SVG/1.1/DTD/svg11.dtd">
<!-- Generated by graphviz version 2.40.1 (20161225.0304)
 -->
<!-- Title: %3 Pages: 1 -->
<svg width="222pt" height="84pt"
 viewBox="0.00 0.00 221.50 84.00" xmlns="http://www.w3.org/2000/svg" xmlns:xlink="http://www.w3.org/1999/xlink">
<g id="graph0" class="graph" transform="scale(1 1) rotate(0) translate(4 80)">
<title>%3</title>
<polygon fill="#ffffff" stroke="transparent" points="-4,4 -4,-80 217.5034,-80 217.5034,4 -4,4"/>
<!-- _START -->
<g id="node1" class="node">
<title>_START</title>
</g>
<!-- q1r1 -->
<g id="node2" class="node">
<title>q1r1</title>
<path fill="none" stroke="#000000" d="M64.1735,-76C64.1735,-76 24.8265,-76 24.8265,-76 22.1598,-76 19.4932,-73.3333 19.4932,-70.6667 19.4932,-70.6667 19.4932,-65.3333 19.4932,-65.3333 19.4932,-62.6667 22.1598,-60 24.8265,-60 24.8265,-60 64.1735,-60 64.1735,-60 66.8402,-60 69.5068,-62.6667 69.5068,-65.3333 69.5068,-65.3333 69.5068,-70.6667 69.5068,-70.6667 69.5068,-73.3333 66.8402,-76 64.1735,-76"/>
<text text-anchor="start" x="23.4966" y="-65" font-family="Courier,monospace" font-size="10.00" fill="#000000">(q1,r1)</text>
</g>
<!-- _START&#45;&gt;q1r1 -->
<g id="edge2" class="edge">
<title>_START&#45;&gt;q1r1</title>
<path fill="none" stroke="#000000" d="M1.1875,-68C5.5653,-68 9.9431,-68 14.3208,-68"/>
<polygon fill="#000000" stroke="#000000" points="19.46,-68 14.46,-70.2501 16.96,-68 14.46,-68.0001 14.46,-68.0001 14.46,-68.0001 16.96,-68 14.4599,-65.7501 19.46,-68 19.46,-68"/>
</g>
<!-- fakestart -->
<g id="node5" class="node">
<title>fakestart</title>
</g>
<!-- _START&#45;&gt;fakestart -->
<!-- q2r1 -->
<g id="node3" class="node">
<title>q2r1</title>
<path fill="none" stroke="#000000" d="M132.1735,-76C132.1735,-76 92.8265,-76 92.8265,-76 90.1598,-76 87.4932,-73.3333 87.4932,-70.6667 87.4932,-70.6667 87.4932,-65.3333 87.4932,-65.3333 87.4932,-62.6667 90.1598,-60 92.8265,-60 92.8265,-60 132.1735,-60 132.1735,-60 134.8402,-60 137.5068,-62.6667 137.5068,-65.3333 137.5068,-65.3333 137.5068,-70.6667 137.5068,-70.6667 137.5068,-73.3333 134.8402,-76 132.1735,-76"/>
<text text-anchor="start" x="91.4966" y="-65" font-family="Courier,monospace" font-size="10.00" fill="#000000">(q2,r1)</text>
</g>
<!-- q3r1 -->
<g id="node4" class="node">
<title>q3r1</title>
<path fill="none" stroke="#000000" d="M200.1735,-76C200.1735,-76 160.8265,-76 160.8265,-76 158.1598,-76 155.4932,-73.3333 155.4932,-70.6667 155.4932,-70.6667 155.4932,-65.3333 155.4932,-65.3333 155.4932,-62.6667 158.1598,-60 160.8265,-60 160.8265,-60 200.1735,-60 200.1735,-60 202.8402,-60 205.5068,-62.6667 205.5068,-65.3333 205.5068,-65.3333 205.5068,-70.6667 205.5068,-70.6667 205.5068,-73.3333 202.8402,-76 200.1735,-76"/>
<text text-anchor="start" x="159.4966" y="-65" font-family="Courier,monospace" font-size="10.00" fill="#000000">(q3,r1)</text>
</g>
<!-- q1r2 -->
<g id="node6" class="node">
<title>q1r2</title>
<path fill="none" stroke="#000000" d="M64.1735,-20C64.1735,-20 24.8265,-20 24.8265,-20 22.1598,-20 19.4932,-17.3333 19.4932,-14.6667 19.4932,-14.6667 19.4932,-9.3333 19.4932,-9.3333 19.4932,-6.6667 22.1598,-4 24.8265,-4 24.8265,-4 64.1735,-4 64.1735,-4 66.8402,-4 69.5068,-6.6667 69.5068,-9.3333 69.5068,-9.3333 69.5068,-14.6667 69.5068,-14.6667 69.5068,-17.3333 66.8402,-20 64.1735,-20"/>
<text text-anchor="start" x="23.4966" y="-9" font-family="Courier,monospace" font-size="10.00" fill="#000000">(q1,r2)</text>
</g>
<!-- fakestart&#45;&gt;q1r2 -->
<!-- q2r2 -->
<g id="node7" class="node">
<title>q2r2</title>
<path fill="none" stroke="#000000" d="M136.173,-20C136.173,-20 96.827,-20 96.827,-20 94.1603,-20 91.4936,-17.3333 91.4936,-14.6667 91.4936,-14.6667 91.4936,-9.3333 91.4936,-9.3333 91.4936,-6.6667 94.1603,-4 96.827,-4 96.827,-4 136.173,-4 136.173,-4 138.8397,-4 141.5064,-6.6667 141.5064,-9.3333 141.5064,-9.3333 141.5064,-14.6667 141.5064,-14.6667 141.5064,-17.3333 138.8397,-20 136.173,-20"/>
<path fill="none" stroke="#000000" d="M137.5068,-24C137.5068,-24 95.4932,-24 95.4932,-24 91.4932,-24 87.4932,-20 87.4932,-16 87.4932,-16 87.4932,-8 87.4932,-8 87.4932,-4 91.4932,0 95.4932,0 95.4932,0 137.5068,0 137.5068,0 141.5068,0 145.5068,-4 145.5068,-8 145.5068,-8 145.5068,-16 145.5068,-16 145.5068,-20 141.5068,-24 137.5068,-24"/>
<text text-anchor="start" x="95.4966" y="-9" font-family="Courier,monospace" font-size="10.00" fill="#000000">(q2,r2)</text>
</g>
<!-- q3r2 -->
<g id="node8" class="node">
<title>q3r2</title>
<path fill="none" stroke="#000000" d="M208.1735,-20C208.1735,-20 168.8265,-20 168.8265,-20 166.1598,-20 163.4932,-17.3333 163.4932,-14.6667 163.4932,-14.6667 163.4932,-9.3333 163.4932,-9.3333 163.4932,-6.6667 166.1598,-4 168.8265,-4 168.8265,-4 208.1735,-4 208.1735,-4 210.8402,-4 213.5068,-6.6667 213.5068,-9.3333 213.5068,-9.3333 213.5068,-14.6667 213.5068,-14.6667 213.5068,-17.3333 210.8402,-20 208.1735,-20"/>
<text text-anchor="start" x="167.4966" y="-9" font-family="Courier,monospace" font-size="10.00" fill="#000000">(q3,r2)</text>
</g>
</g>
</svg>
