<?xml version="1.0" encoding="UTF-8" standalone="no"?>
<!DOCTYPE svg PUBLIC "-//W3C//DTD SVG 1.1//EN"
 "http://www.w3.org/Graphics/SVG/1.1/DTD/svg11.dtd">
<!-- Generated by graphviz version 2.40.1 (20161225.0304)
 -->
<!-- Title: %3 Pages: 1 -->
<svg width="239pt" height="99pt"
 viewBox="0.00 0.00 238.50 99.00" xmlns="http://www.w3.org/2000/svg" xmlns:xlink="http://www.w3.org/1999/xlink">
<g id="graph0" class="graph" transform="scale(1 1) rotate(0) translate(4 95)">
<title>%3</title>
<polygon fill="#ffffff" stroke="transparent" points="-4,4 -4,-95 234.5034,-95 234.5034,4 -4,4"/>
<!-- _START -->
<g id="node1" class="node">
<title>_START</title>
</g>
<!-- q1r1 -->
<g id="node2" class="node">
<title>q1r1</title>
<path fill="none" stroke="#000000" d="M81.1735,-91C81.1735,-91 41.8265,-91 41.8265,-91 39.1598,-91 36.4932,-88.3333 36.4932,-85.6667 36.4932,-85.6667 36.4932,-80.3333 36.4932,-80.3333 36.4932,-77.6667 39.1598,-75 41.8265,-75 41.8265,-75 81.1735,-75 81.1735,-75 83.8402,-75 86.5068,-77.6667 86.5068,-80.3333 86.5068,-80.3333 86.5068,-85.6667 86.5068,-85.6667 86.5068,-88.3333 83.8402,-91 81.1735,-91"/>
<text text-anchor="start" x="40.4966" y="-80" font-family="Courier,monospace" font-size="10.00" fill="#000000">(q1,r1)</text>
</g>
<!-- _START&#45;&gt;q1r1 -->
<g id="edge2" class="edge">
<title>_START&#45;&gt;q1r1</title>
<path fill="none" stroke="#000000" d="M1.4531,-83C11.307,-83 21.1609,-83 31.0148,-83"/>
<polygon fill="#000000" stroke="#000000" points="36.1677,-83 31.1678,-85.2501 33.6677,-83 31.1677,-83.0001 31.1677,-83.0001 31.1677,-83.0001 33.6677,-83 31.1677,-80.7501 36.1677,-83 36.1677,-83"/>
</g>
<!-- fakestart -->
<g id="node5" class="node">
<title>fakestart</title>
</g>
<!-- _START&#45;&gt;fakestart -->
<!-- q2r2 -->
<g id="node7" class="node">
<title>q2r2</title>
<path fill="none" stroke="#000000" d="M153.173,-20C153.173,-20 113.827,-20 113.827,-20 111.1603,-20 108.4936,-17.3333 108.4936,-14.6667 108.4936,-14.6667 108.4936,-9.3333 108.4936,-9.3333 108.4936,-6.6667 111.1603,-4 113.827,-4 113.827,-4 153.173,-4 153.173,-4 155.8397,-4 158.5064,-6.6667 158.5064,-9.3333 158.5064,-9.3333 158.5064,-14.6667 158.5064,-14.6667 158.5064,-17.3333 155.8397,-20 153.173,-20"/>
<path fill="none" stroke="#000000" d="M154.5068,-24C154.5068,-24 112.4932,-24 112.4932,-24 108.4932,-24 104.4932,-20 104.4932,-16 104.4932,-16 104.4932,-8 104.4932,-8 104.4932,-4 108.4932,0 112.4932,0 112.4932,0 154.5068,0 154.5068,0 158.5068,0 162.5068,-4 162.5068,-8 162.5068,-8 162.5068,-16 162.5068,-16 162.5068,-20 158.5068,-24 154.5068,-24"/>
<text text-anchor="start" x="112.4966" y="-9" font-family="Courier,monospace" font-size="10.00" fill="#000000">(q2,r2)</text>
</g>
<!-- q1r1&#45;&gt;q2r2 -->
<g id="edge4" class="edge">
<title>q1r1&#45;&gt;q2r2</title>
<path fill="none" stroke="#000000" d="M69.7593,-74.8554C81.4051,-63.3714 102.8781,-42.1966 117.6595,-27.6205"/>
<polygon fill="#000000" stroke="#000000" points="121.2632,-24.0668 119.2829,-29.1796 119.4831,-25.8222 117.703,-27.5776 117.703,-27.5776 117.703,-27.5776 119.4831,-25.8222 116.1232,-25.9755 121.2632,-24.0668 121.2632,-24.0668"/>
<text text-anchor="start" x="104.7996" y="-46.3" font-family="Courier,monospace" font-size="9.00" fill="#000000">1</text>
</g>
<!-- q2r1 -->
<g id="node3" class="node">
<title>q2r1</title>
<path fill="none" stroke="#000000" d="M149.1735,-91C149.1735,-91 109.8265,-91 109.8265,-91 107.1598,-91 104.4932,-88.3333 104.4932,-85.6667 104.4932,-85.6667 104.4932,-80.3333 104.4932,-80.3333 104.4932,-77.6667 107.1598,-75 109.8265,-75 109.8265,-75 149.1735,-75 149.1735,-75 151.8402,-75 154.5068,-77.6667 154.5068,-80.3333 154.5068,-80.3333 154.5068,-85.6667 154.5068,-85.6667 154.5068,-88.3333 151.8402,-91 149.1735,-91"/>
<text text-anchor="start" x="108.4966" y="-80" font-family="Courier,monospace" font-size="10.00" fill="#000000">(q2,r1)</text>
</g>
<!-- q3r1 -->
<g id="node4" class="node">
<title>q3r1</title>
<path fill="none" stroke="#000000" d="M217.1735,-91C217.1735,-91 177.8265,-91 177.8265,-91 175.1598,-91 172.4932,-88.3333 172.4932,-85.6667 172.4932,-85.6667 172.4932,-80.3333 172.4932,-80.3333 172.4932,-77.6667 175.1598,-75 177.8265,-75 177.8265,-75 217.1735,-75 217.1735,-75 219.8402,-75 222.5068,-77.6667 222.5068,-80.3333 222.5068,-80.3333 222.5068,-85.6667 222.5068,-85.6667 222.5068,-88.3333 219.8402,-91 217.1735,-91"/>
<text text-anchor="start" x="176.4966" y="-80" font-family="Courier,monospace" font-size="10.00" fill="#000000">(q3,r1)</text>
</g>
<!-- q1r2 -->
<g id="node6" class="node">
<title>q1r2</title>
<path fill="none" stroke="#000000" d="M81.1735,-20C81.1735,-20 41.8265,-20 41.8265,-20 39.1598,-20 36.4932,-17.3333 36.4932,-14.6667 36.4932,-14.6667 36.4932,-9.3333 36.4932,-9.3333 36.4932,-6.6667 39.1598,-4 41.8265,-4 41.8265,-4 81.1735,-4 81.1735,-4 83.8402,-4 86.5068,-6.6667 86.5068,-9.3333 86.5068,-9.3333 86.5068,-14.6667 86.5068,-14.6667 86.5068,-17.3333 83.8402,-20 81.1735,-20"/>
<text text-anchor="start" x="40.4966" y="-9" font-family="Courier,monospace" font-size="10.00" fill="#000000">(q1,r2)</text>
</g>
<!-- fakestart&#45;&gt;q1r2 -->
<!-- q3r2 -->
<g id="node8" class="node">
<title>q3r2</title>
<path fill="none" stroke="#000000" d="M225.1735,-20C225.1735,-20 185.8265,-20 185.8265,-20 183.1598,-20 180.4932,-17.3333 180.4932,-14.6667 180.4932,-14.6667 180.4932,-9.3333 180.4932,-9.3333 180.4932,-6.6667 183.1598,-4 185.8265,-4 185.8265,-4 225.1735,-4 225.1735,-4 227.8402,-4 230.5068,-6.6667 230.5068,-9.3333 230.5068,-9.3333 230.5068,-14.6667 230.5068,-14.6667 230.5068,-17.3333 227.8402,-20 225.1735,-20"/>
<text text-anchor="start" x="184.4966" y="-9" font-family="Courier,monospace" font-size="10.00" fill="#000000">(q3,r2)</text>
</g>
</g>
</svg>
