<?xml version="1.0" encoding="UTF-8" standalone="no"?>
<!DOCTYPE svg PUBLIC "-//W3C//DTD SVG 1.1//EN"
 "http://www.w3.org/Graphics/SVG/1.1/DTD/svg11.dtd">
<!-- Generated by graphviz version 2.40.1 (20161225.0304)
 -->
<!-- Title: %3 Pages: 1 -->
<svg width="304pt" height="99pt"
 viewBox="0.00 0.00 303.50 99.00" xmlns="http://www.w3.org/2000/svg" xmlns:xlink="http://www.w3.org/1999/xlink">
<g id="graph0" class="graph" transform="scale(1 1) rotate(0) translate(4 95)">
<title>%3</title>
<polygon fill="#ffffff" stroke="transparent" points="-4,4 -4,-95 299.5034,-95 299.5034,4 -4,4"/>
<!-- _START -->
<g id="node1" class="node">
<title>_START</title>
</g>
<!-- q1r1 -->
<g id="node2" class="node">
<title>q1r1</title>
<path fill="none" stroke="#000000" d="M81.1735,-91C81.1735,-91 41.8265,-91 41.8265,-91 39.1598,-91 36.4932,-88.3333 36.4932,-85.6667 36.4932,-85.6667 36.4932,-80.3333 36.4932,-80.3333 36.4932,-77.6667 39.1598,-75 41.8265,-75 41.8265,-75 81.1735,-75 81.1735,-75 83.8402,-75 86.5068,-77.6667 86.5068,-80.3333 86.5068,-80.3333 86.5068,-85.6667 86.5068,-85.6667 86.5068,-88.3333 83.8402,-91 81.1735,-91"/>
<text text-anchor="start" x="40.4966" y="-80" font-family="Courier,monospace" font-size="10.00" fill="#000000">(q1,r1)</text>
</g>
<!-- _START&#45;&gt;q1r1 -->
<g id="edge2" class="edge">
<title>_START&#45;&gt;q1r1</title>
<path fill="none" stroke="#000000" d="M1.4531,-83C11.307,-83 21.1609,-83 31.0148,-83"/>
<polygon fill="#000000" stroke="#000000" points="36.1677,-83 31.1678,-85.2501 33.6677,-83 31.1677,-83.0001 31.1677,-83.0001 31.1677,-83.0001 33.6677,-83 31.1677,-80.7501 36.1677,-83 36.1677,-83"/>
</g>
<!-- fakestart -->
<g id="node5" class="node">
<title>fakestart</title>
</g>
<!-- _START&#45;&gt;fakestart -->
<!-- q1r1&#45;&gt;q1r1 -->
<g id="edge4" class="edge">
<title>q1r1&#45;&gt;q1r1</title>
<path fill="none" stroke="#000000" d="M86.6776,-88.9766C96.4123,-89.2422 104.5034,-87.25 104.5034,-83 104.5034,-79.5469 99.162,-77.5843 91.9375,-77.1122"/>
<polygon fill="#000000" stroke="#000000" points="86.6776,-77.0234 91.7149,-74.8582 89.1773,-77.0656 91.6769,-77.1079 91.6769,-77.1079 91.6769,-77.1079 89.1773,-77.0656 91.6389,-79.3575 86.6776,-77.0234 86.6776,-77.0234"/>
<text text-anchor="start" x="107.803" y="-79.8" font-family="Courier,monospace" font-size="9.00" fill="#000000">0</text>
</g>
<!-- q2r2 -->
<g id="node7" class="node">
<title>q2r2</title>
<path fill="none" stroke="#000000" d="M171.173,-20C171.173,-20 131.827,-20 131.827,-20 129.1603,-20 126.4936,-17.3333 126.4936,-14.6667 126.4936,-14.6667 126.4936,-9.3333 126.4936,-9.3333 126.4936,-6.6667 129.1603,-4 131.827,-4 131.827,-4 171.173,-4 171.173,-4 173.8397,-4 176.5064,-6.6667 176.5064,-9.3333 176.5064,-9.3333 176.5064,-14.6667 176.5064,-14.6667 176.5064,-17.3333 173.8397,-20 171.173,-20"/>
<path fill="none" stroke="#000000" d="M172.5068,-24C172.5068,-24 130.4932,-24 130.4932,-24 126.4932,-24 122.4932,-20 122.4932,-16 122.4932,-16 122.4932,-8 122.4932,-8 122.4932,-4 126.4932,0 130.4932,0 130.4932,0 172.5068,0 172.5068,0 176.5068,0 180.5068,-4 180.5068,-8 180.5068,-8 180.5068,-16 180.5068,-16 180.5068,-20 176.5068,-24 172.5068,-24"/>
<text text-anchor="start" x="130.4966" y="-9" font-family="Courier,monospace" font-size="10.00" fill="#000000">(q2,r2)</text>
</g>
<!-- q1r1&#45;&gt;q2r2 -->
<g id="edge5" class="edge">
<title>q1r1&#45;&gt;q2r2</title>
<path fill="none" stroke="#000000" d="M71.8241,-74.8554C86.5047,-63.2741 113.6784,-41.837 132.1673,-27.2514"/>
<polygon fill="#000000" stroke="#000000" points="136.2041,-24.0668 133.6721,-28.9301 134.2413,-25.6152 132.2785,-27.1636 132.2785,-27.1636 132.2785,-27.1636 134.2413,-25.6152 130.8849,-25.3971 136.2041,-24.0668 136.2041,-24.0668"/>
<text text-anchor="start" x="115.7996" y="-46.3" font-family="Courier,monospace" font-size="9.00" fill="#000000">1</text>
</g>
<!-- q2r1 -->
<g id="node3" class="node">
<title>q2r1</title>
<path fill="none" stroke="#000000" d="M178.1735,-91C178.1735,-91 138.8265,-91 138.8265,-91 136.1598,-91 133.4932,-88.3333 133.4932,-85.6667 133.4932,-85.6667 133.4932,-80.3333 133.4932,-80.3333 133.4932,-77.6667 136.1598,-75 138.8265,-75 138.8265,-75 178.1735,-75 178.1735,-75 180.8402,-75 183.5068,-77.6667 183.5068,-80.3333 183.5068,-80.3333 183.5068,-85.6667 183.5068,-85.6667 183.5068,-88.3333 180.8402,-91 178.1735,-91"/>
<text text-anchor="start" x="137.4966" y="-80" font-family="Courier,monospace" font-size="10.00" fill="#000000">(q2,r1)</text>
</g>
<!-- q3r1 -->
<g id="node4" class="node">
<title>q3r1</title>
<path fill="none" stroke="#000000" d="M264.1735,-91C264.1735,-91 224.8265,-91 224.8265,-91 222.1598,-91 219.4932,-88.3333 219.4932,-85.6667 219.4932,-85.6667 219.4932,-80.3333 219.4932,-80.3333 219.4932,-77.6667 222.1598,-75 224.8265,-75 224.8265,-75 264.1735,-75 264.1735,-75 266.8402,-75 269.5068,-77.6667 269.5068,-80.3333 269.5068,-80.3333 269.5068,-85.6667 269.5068,-85.6667 269.5068,-88.3333 266.8402,-91 264.1735,-91"/>
<text text-anchor="start" x="223.4966" y="-80" font-family="Courier,monospace" font-size="10.00" fill="#000000">(q3,r1)</text>
</g>
<!-- q2r1&#45;&gt;q3r1 -->
<g id="edge6" class="edge">
<title>q2r1&#45;&gt;q3r1</title>
<path fill="none" stroke="#000000" d="M183.8377,-83C193.3731,-83 204.311,-83 214.2498,-83"/>
<polygon fill="#000000" stroke="#000000" points="219.3434,-83 214.3435,-85.2501 216.8434,-83 214.3434,-83.0001 214.3434,-83.0001 214.3434,-83.0001 216.8434,-83 214.3434,-80.7501 219.3434,-83 219.3434,-83"/>
<text text-anchor="start" x="199.2996" y="-90.3" font-family="Courier,monospace" font-size="9.00" fill="#000000">0</text>
</g>
<!-- q2r1&#45;&gt;q2r2 -->
<g id="edge7" class="edge">
<title>q2r1&#45;&gt;q2r2</title>
<path fill="none" stroke="#000000" d="M153.9353,-74.6113C151.4971,-69.6484 148.7471,-63.1484 147.5,-57 145.6665,-47.9608 146.3615,-37.7308 147.6489,-29.3113"/>
<polygon fill="#000000" stroke="#000000" points="148.5097,-24.3297 149.8754,-29.6399 148.084,-26.7932 147.6582,-29.2567 147.6582,-29.2567 147.6582,-29.2567 148.084,-26.7932 145.4411,-28.8736 148.5097,-24.3297 148.5097,-24.3297"/>
<text text-anchor="start" x="150.7996" y="-46.3" font-family="Courier,monospace" font-size="9.00" fill="#000000">1</text>
</g>
<!-- q3r1&#45;&gt;q2r1 -->
<g id="edge8" class="edge">
<title>q3r1&#45;&gt;q2r1</title>
<path fill="none" stroke="#000000" d="M233.1969,-74.7599C223.5295,-68.7042 209.1361,-62.0106 196,-65 189.1543,-66.5579 182.0999,-69.5284 175.9825,-72.6141"/>
<polygon fill="#000000" stroke="#000000" points="171.5062,-74.9746 174.8794,-70.652 173.7176,-73.8084 175.9289,-72.6423 175.9289,-72.6423 175.9289,-72.6423 173.7176,-73.8084 176.9785,-74.6325 171.5062,-74.9746 171.5062,-74.9746"/>
<text text-anchor="start" x="199.2996" y="-69.3" font-family="Courier,monospace" font-size="9.00" fill="#000000">0</text>
</g>
<!-- q3r1&#45;&gt;q2r2 -->
<g id="edge9" class="edge">
<title>q3r1&#45;&gt;q2r2</title>
<path fill="none" stroke="#000000" d="M234.2261,-74.7216C223.7977,-66.3611 207.147,-53.1272 192.5,-42 186.1089,-37.1447 179.0807,-31.9504 172.6761,-27.2718"/>
<polygon fill="#000000" stroke="#000000" points="168.3572,-24.1255 173.7234,-25.251 170.3779,-25.5976 172.3985,-27.0696 172.3985,-27.0696 172.3985,-27.0696 170.3779,-25.5976 171.0737,-28.8882 168.3572,-24.1255 168.3572,-24.1255"/>
<text text-anchor="start" x="213.7996" y="-46.3" font-family="Courier,monospace" font-size="9.00" fill="#000000">1</text>
</g>
<!-- q1r2 -->
<g id="node6" class="node">
<title>q1r2</title>
<path fill="none" stroke="#000000" d="M81.1735,-20C81.1735,-20 41.8265,-20 41.8265,-20 39.1598,-20 36.4932,-17.3333 36.4932,-14.6667 36.4932,-14.6667 36.4932,-9.3333 36.4932,-9.3333 36.4932,-6.6667 39.1598,-4 41.8265,-4 41.8265,-4 81.1735,-4 81.1735,-4 83.8402,-4 86.5068,-6.6667 86.5068,-9.3333 86.5068,-9.3333 86.5068,-14.6667 86.5068,-14.6667 86.5068,-17.3333 83.8402,-20 81.1735,-20"/>
<text text-anchor="start" x="40.4966" y="-9" font-family="Courier,monospace" font-size="10.00" fill="#000000">(q1,r2)</text>
</g>
<!-- fakestart&#45;&gt;q1r2 -->
<!-- q1r2&#45;&gt;q1r1 -->
<g id="edge10" class="edge">
<title>q1r2&#45;&gt;q1r1</title>
<path fill="none" stroke="#000000" d="M61.5,-20.0496C61.5,-32.0838 61.5,-54.9096 61.5,-69.5171"/>
<polygon fill="#000000" stroke="#000000" points="61.5,-74.8554 59.2501,-69.8554 61.5,-72.3554 61.5001,-69.8554 61.5001,-69.8554 61.5001,-69.8554 61.5,-72.3554 63.7501,-69.8554 61.5,-74.8554 61.5,-74.8554"/>
<text text-anchor="start" x="64.7996" y="-46.3" font-family="Courier,monospace" font-size="9.00" fill="#000000">0</text>
</g>
<!-- q1r2&#45;&gt;q2r2 -->
<g id="edge11" class="edge">
<title>q1r2&#45;&gt;q2r2</title>
<path fill="none" stroke="#000000" d="M86.57,-12C96.0484,-12 107.0052,-12 117.1871,-12"/>
<polygon fill="#000000" stroke="#000000" points="122.4291,-12 117.4291,-14.2501 119.9291,-12 117.4291,-12.0001 117.4291,-12.0001 117.4291,-12.0001 119.9291,-12 117.4291,-9.7501 122.4291,-12 122.4291,-12"/>
<text text-anchor="start" x="102.2996" y="-19.3" font-family="Courier,monospace" font-size="9.00" fill="#000000">1</text>
</g>
<!-- q2r2&#45;&gt;q3r1 -->
<g id="edge12" class="edge">
<title>q2r2&#45;&gt;q3r1</title>
<path fill="none" stroke="#000000" d="M180.6685,-18.3565C195.5871,-22.8558 213.1524,-30.2407 225.5,-42 233.3097,-49.4376 238.2108,-60.71 241.075,-69.554"/>
<polygon fill="#000000" stroke="#000000" points="242.6029,-74.6909 239.0207,-70.5399 241.8901,-72.2946 241.1773,-69.8984 241.1773,-69.8984 241.1773,-69.8984 241.8901,-72.2946 243.334,-69.2569 242.6029,-74.6909 242.6029,-74.6909"/>
<text text-anchor="start" x="238.7996" y="-46.3" font-family="Courier,monospace" font-size="9.00" fill="#000000">0</text>
</g>
<!-- q2r2&#45;&gt;q2r2 -->
<g id="edge13" class="edge">
<title>q2r2&#45;&gt;q2r2</title>
<path fill="none" stroke="#000000" d="M180.8771,-18.75C190.6695,-18.75 198.5034,-16.5 198.5034,-12 198.5034,-8.3438 193.3318,-6.1729 186.1401,-5.4873"/>
<polygon fill="#000000" stroke="#000000" points="180.8771,-5.25 185.9735,-3.2276 183.3746,-5.3627 185.8721,-5.4753 185.8721,-5.4753 185.8721,-5.4753 183.3746,-5.3627 185.7707,-7.723 180.8771,-5.25 180.8771,-5.25"/>
<text text-anchor="start" x="201.803" y="-8.8" font-family="Courier,monospace" font-size="9.00" fill="#000000">1</text>
</g>
<!-- q3r2 -->
<g id="node8" class="node">
<title>q3r2</title>
<path fill="none" stroke="#000000" d="M290.1735,-20C290.1735,-20 250.8265,-20 250.8265,-20 248.1598,-20 245.4932,-17.3333 245.4932,-14.6667 245.4932,-14.6667 245.4932,-9.3333 245.4932,-9.3333 245.4932,-6.6667 248.1598,-4 250.8265,-4 250.8265,-4 290.1735,-4 290.1735,-4 292.8402,-4 295.5068,-6.6667 295.5068,-9.3333 295.5068,-9.3333 295.5068,-14.6667 295.5068,-14.6667 295.5068,-17.3333 292.8402,-20 290.1735,-20"/>
<text text-anchor="start" x="249.4966" y="-9" font-family="Courier,monospace" font-size="10.00" fill="#000000">(q3,r2)</text>
</g>
<!-- q3r2&#45;&gt;q2r1 -->
<g id="edge14" class="edge">
<title>q3r2&#45;&gt;q2r1</title>
<path fill="none" stroke="#000000" d="M245.0924,-18.0661C221.8075,-24.0296 189.4837,-33.4543 179.5,-42 170.9675,-49.3035 165.4768,-60.9325 162.2583,-69.9433"/>
<polygon fill="#000000" stroke="#000000" points="160.62,-74.8937 160.0549,-69.44 161.4055,-72.5203 162.191,-70.1469 162.191,-70.1469 162.191,-70.1469 161.4055,-72.5203 164.327,-70.8538 160.62,-74.8937 160.62,-74.8937"/>
<text text-anchor="start" x="182.7996" y="-46.3" font-family="Courier,monospace" font-size="9.00" fill="#000000">0</text>
</g>
<!-- q3r2&#45;&gt;q2r2 -->
<g id="edge15" class="edge">
<title>q3r2&#45;&gt;q2r2</title>
<path fill="none" stroke="#000000" d="M245.3177,-12C228.0183,-12 204.8381,-12 185.8475,-12"/>
<polygon fill="#000000" stroke="#000000" points="180.6107,-12 185.6107,-9.7501 183.1107,-12 185.6107,-12.0001 185.6107,-12.0001 185.6107,-12.0001 183.1107,-12 185.6106,-14.2501 180.6107,-12 180.6107,-12"/>
<text text-anchor="start" x="210.7996" y="-19.3" font-family="Courier,monospace" font-size="9.00" fill="#000000">1</text>
</g>
</g>
</svg>
