<?xml version="1.0" encoding="UTF-8" standalone="no"?>
<!DOCTYPE svg PUBLIC "-//W3C//DTD SVG 1.1//EN"
 "http://www.w3.org/Graphics/SVG/1.1/DTD/svg11.dtd">
<!-- Generated by graphviz version 2.40.1 (20161225.0304)
 -->
<!-- Title: %3 Pages: 1 -->
<svg width="304pt" height="99pt"
 viewBox="0.00 0.00 303.50 99.00" xmlns="http://www.w3.org/2000/svg" xmlns:xlink="http://www.w3.org/1999/xlink">
<g id="graph0" class="graph" transform="scale(1 1) rotate(0) translate(4 95)">
<title>%3</title>
<polygon fill="#ffffff" stroke="transparent" points="-4,4 -4,-95 299.5034,-95 299.5034,4 -4,4"/>
<!-- _START -->
<g id="node1" class="node">
<title>_START</title>
</g>
<!-- q1r1 -->
<g id="node2" class="node">
<title>q1r1</title>
<path fill="none" stroke="#000000" d="M81.1735,-91C81.1735,-91 41.8265,-91 41.8265,-91 39.1598,-91 36.4932,-88.3333 36.4932,-85.6667 36.4932,-85.6667 36.4932,-80.3333 36.4932,-80.3333 36.4932,-77.6667 39.1598,-75 41.8265,-75 41.8265,-75 81.1735,-75 81.1735,-75 83.8402,-75 86.5068,-77.6667 86.5068,-80.3333 86.5068,-80.3333 86.5068,-85.6667 86.5068,-85.6667 86.5068,-88.3333 83.8402,-91 81.1735,-91"/>
<text text-anchor="start" x="40.4966" y="-80" font-family="Courier,monospace" font-size="10.00" fill="#000000">(q1,r1)</text>
</g>
<!-- _START&#45;&gt;q1r1 -->
<g id="edge2" class="edge">
<title>_START&#45;&gt;q1r1</title>
<path fill="none" stroke="#000000" d="M1.4531,-83C11.307,-83 21.1609,-83 31.0148,-83"/>
<polygon fill="#000000" stroke="#000000" points="36.1677,-83 31.1678,-85.2501 33.6677,-83 31.1677,-83.0001 31.1677,-83.0001 31.1677,-83.0001 33.6677,-83 31.1677,-80.7501 36.1677,-83 36.1677,-83"/>
</g>
<!-- fakestart -->
<g id="node5" class="node">
<title>fakestart</title>
</g>
<!-- _START&#45;&gt;fakestart -->
<!-- q1r1&#45;&gt;q1r1 -->
<g id="edge4" class="edge">
<title>q1r1&#45;&gt;q1r1</title>
<path fill="none" stroke="#000000" d="M86.6776,-88.9766C96.4123,-89.2422 104.5034,-87.25 104.5034,-83 104.5034,-79.5469 99.162,-77.5843 91.9375,-77.1122"/>
<polygon fill="#000000" stroke="#000000" points="86.6776,-77.0234 91.7149,-74.8582 89.1773,-77.0656 91.6769,-77.1079 91.6769,-77.1079 91.6769,-77.1079 89.1773,-77.0656 91.6389,-79.3575 86.6776,-77.0234 86.6776,-77.0234"/>
<text text-anchor="start" x="107.803" y="-79.8" font-family="Courier,monospace" font-size="9.00" fill="#000000">0</text>
</g>
<!-- q2r2 -->
<g id="node7" class="node">
<title>q2r2</title>
<path fill="none" stroke="#000000" d="M167.1735,-20C167.1735,-20 127.8265,-20 127.8265,-20 125.1598,-20 122.4932,-17.3333 122.4932,-14.6667 122.4932,-14.6667 122.4932,-9.3333 122.4932,-9.3333 122.4932,-6.6667 125.1598,-4 127.8265,-4 127.8265,-4 167.1735,-4 167.1735,-4 169.8402,-4 172.5068,-6.6667 172.5068,-9.3333 172.5068,-9.3333 172.5068,-14.6667 172.5068,-14.6667 172.5068,-17.3333 169.8402,-20 167.1735,-20"/>
<text text-anchor="start" x="126.4966" y="-9" font-family="Courier,monospace" font-size="10.00" fill="#000000">(q2,r2)</text>
</g>
<!-- q1r1&#45;&gt;q2r2 -->
<g id="edge5" class="edge">
<title>q1r1&#45;&gt;q2r2</title>
<path fill="none" stroke="#000000" d="M71.3653,-74.8554C86.6584,-62.2297 116.1395,-37.8906 133.5887,-23.4849"/>
<polygon fill="#000000" stroke="#000000" points="137.7498,-20.0496 135.3265,-24.968 135.8219,-21.6413 133.894,-23.2329 133.894,-23.2329 133.894,-23.2329 135.8219,-21.6413 132.4615,-21.4978 137.7498,-20.0496 137.7498,-20.0496"/>
<text text-anchor="start" x="113.7996" y="-46.3" font-family="Courier,monospace" font-size="9.00" fill="#000000">1</text>
</g>
<!-- q2r1 -->
<g id="node3" class="node">
<title>q2r1</title>
<path fill="none" stroke="#000000" d="M178.1735,-91C178.1735,-91 138.8265,-91 138.8265,-91 136.1598,-91 133.4932,-88.3333 133.4932,-85.6667 133.4932,-85.6667 133.4932,-80.3333 133.4932,-80.3333 133.4932,-77.6667 136.1598,-75 138.8265,-75 138.8265,-75 178.1735,-75 178.1735,-75 180.8402,-75 183.5068,-77.6667 183.5068,-80.3333 183.5068,-80.3333 183.5068,-85.6667 183.5068,-85.6667 183.5068,-88.3333 180.8402,-91 178.1735,-91"/>
<text text-anchor="start" x="137.4966" y="-80" font-family="Courier,monospace" font-size="10.00" fill="#000000">(q2,r1)</text>
</g>
<!-- q3r1 -->
<g id="node4" class="node">
<title>q3r1</title>
<path fill="none" stroke="#000000" d="M264.1735,-91C264.1735,-91 224.8265,-91 224.8265,-91 222.1598,-91 219.4932,-88.3333 219.4932,-85.6667 219.4932,-85.6667 219.4932,-80.3333 219.4932,-80.3333 219.4932,-77.6667 222.1598,-75 224.8265,-75 224.8265,-75 264.1735,-75 264.1735,-75 266.8402,-75 269.5068,-77.6667 269.5068,-80.3333 269.5068,-80.3333 269.5068,-85.6667 269.5068,-85.6667 269.5068,-88.3333 266.8402,-91 264.1735,-91"/>
<text text-anchor="start" x="223.4966" y="-80" font-family="Courier,monospace" font-size="10.00" fill="#000000">(q3,r1)</text>
</g>
<!-- q2r1&#45;&gt;q3r1 -->
<g id="edge6" class="edge">
<title>q2r1&#45;&gt;q3r1</title>
<path fill="none" stroke="#000000" d="M183.8377,-83C193.3731,-83 204.311,-83 214.2498,-83"/>
<polygon fill="#000000" stroke="#000000" points="219.3434,-83 214.3435,-85.2501 216.8434,-83 214.3434,-83.0001 214.3434,-83.0001 214.3434,-83.0001 216.8434,-83 214.3434,-80.7501 219.3434,-83 219.3434,-83"/>
<text text-anchor="start" x="199.2996" y="-90.3" font-family="Courier,monospace" font-size="9.00" fill="#000000">0</text>
</g>
<!-- q2r1&#45;&gt;q2r2 -->
<g id="edge7" class="edge">
<title>q2r1&#45;&gt;q2r2</title>
<path fill="none" stroke="#000000" d="M153.1131,-74.7152C150.2341,-69.7869 146.9841,-63.2869 145.5,-57 143.0301,-46.5372 143.7895,-34.3352 145.0222,-25.2789"/>
<polygon fill="#000000" stroke="#000000" points="145.8263,-20.0902 147.284,-25.3758 145.4434,-22.5607 145.0605,-25.0312 145.0605,-25.0312 145.0605,-25.0312 145.4434,-22.5607 142.8371,-24.6866 145.8263,-20.0902 145.8263,-20.0902"/>
<text text-anchor="start" x="148.7996" y="-46.3" font-family="Courier,monospace" font-size="9.00" fill="#000000">1</text>
</g>
<!-- q3r1&#45;&gt;q2r1 -->
<g id="edge8" class="edge">
<title>q3r1&#45;&gt;q2r1</title>
<path fill="none" stroke="#000000" d="M233.1969,-74.7599C223.5295,-68.7042 209.1361,-62.0106 196,-65 189.1543,-66.5579 182.0999,-69.5284 175.9825,-72.6141"/>
<polygon fill="#000000" stroke="#000000" points="171.5062,-74.9746 174.8794,-70.652 173.7176,-73.8084 175.9289,-72.6423 175.9289,-72.6423 175.9289,-72.6423 173.7176,-73.8084 176.9785,-74.6325 171.5062,-74.9746 171.5062,-74.9746"/>
<text text-anchor="start" x="199.2996" y="-69.3" font-family="Courier,monospace" font-size="9.00" fill="#000000">0</text>
</g>
<!-- q3r1&#45;&gt;q2r2 -->
<g id="edge9" class="edge">
<title>q3r1&#45;&gt;q2r2</title>
<path fill="none" stroke="#000000" d="M233.8376,-74.7038C223.0133,-66.3292 205.7261,-53.0848 190.5,-42 181.683,-35.5811 171.7003,-28.5993 163.5743,-22.9875"/>
<polygon fill="#000000" stroke="#000000" points="159.2701,-20.023 164.6642,-21.0061 161.329,-21.4411 163.3879,-22.8592 163.3879,-22.8592 163.3879,-22.8592 161.329,-21.4411 162.1117,-24.7122 159.2701,-20.023 159.2701,-20.023"/>
<text text-anchor="start" x="212.7996" y="-46.3" font-family="Courier,monospace" font-size="9.00" fill="#000000">1</text>
</g>
<!-- q1r2 -->
<g id="node6" class="node">
<title>q1r2</title>
<path fill="none" stroke="#000000" d="M81.1735,-20C81.1735,-20 41.8265,-20 41.8265,-20 39.1598,-20 36.4932,-17.3333 36.4932,-14.6667 36.4932,-14.6667 36.4932,-9.3333 36.4932,-9.3333 36.4932,-6.6667 39.1598,-4 41.8265,-4 41.8265,-4 81.1735,-4 81.1735,-4 83.8402,-4 86.5068,-6.6667 86.5068,-9.3333 86.5068,-9.3333 86.5068,-14.6667 86.5068,-14.6667 86.5068,-17.3333 83.8402,-20 81.1735,-20"/>
<text text-anchor="start" x="40.4966" y="-9" font-family="Courier,monospace" font-size="10.00" fill="#000000">(q1,r2)</text>
</g>
<!-- fakestart&#45;&gt;q1r2 -->
<!-- q1r2&#45;&gt;q1r1 -->
<g id="edge10" class="edge">
<title>q1r2&#45;&gt;q1r1</title>
<path fill="none" stroke="#000000" d="M61.5,-20.0496C61.5,-32.0838 61.5,-54.9096 61.5,-69.5171"/>
<polygon fill="#000000" stroke="#000000" points="61.5,-74.8554 59.2501,-69.8554 61.5,-72.3554 61.5001,-69.8554 61.5001,-69.8554 61.5001,-69.8554 61.5,-72.3554 63.7501,-69.8554 61.5,-74.8554 61.5,-74.8554"/>
<text text-anchor="start" x="64.7996" y="-46.3" font-family="Courier,monospace" font-size="9.00" fill="#000000">0</text>
</g>
<!-- q1r2&#45;&gt;q2r2 -->
<g id="edge11" class="edge">
<title>q1r2&#45;&gt;q2r2</title>
<path fill="none" stroke="#000000" d="M86.8377,-12C96.3731,-12 107.311,-12 117.2498,-12"/>
<polygon fill="#000000" stroke="#000000" points="122.3434,-12 117.3435,-14.2501 119.8434,-12 117.3434,-12.0001 117.3434,-12.0001 117.3434,-12.0001 119.8434,-12 117.3434,-9.7501 122.3434,-12 122.3434,-12"/>
<text text-anchor="start" x="102.2996" y="-19.3" font-family="Courier,monospace" font-size="9.00" fill="#000000">1</text>
</g>
<!-- q2r2&#45;&gt;q3r1 -->
<g id="edge12" class="edge">
<title>q2r2&#45;&gt;q3r1</title>
<path fill="none" stroke="#000000" d="M172.5736,-16.7895C189.0059,-21.0298 210.0415,-28.6854 224.5,-42 232.6817,-49.5344 237.9056,-61.141 240.9546,-70.0845"/>
<polygon fill="#000000" stroke="#000000" points="242.5045,-74.9916 238.853,-70.9015 241.7515,-72.6077 240.9986,-70.2238 240.9986,-70.2238 240.9986,-70.2238 241.7515,-72.6077 243.1441,-69.5461 242.5045,-74.9916 242.5045,-74.9916"/>
<text text-anchor="start" x="237.7996" y="-46.3" font-family="Courier,monospace" font-size="9.00" fill="#000000">0</text>
</g>
<!-- q2r2&#45;&gt;q2r2 -->
<g id="edge13" class="edge">
<title>q2r2&#45;&gt;q2r2</title>
<path fill="none" stroke="#000000" d="M172.6776,-18.7236C182.4123,-19.0225 190.5034,-16.7813 190.5034,-12 190.5034,-8.1152 185.162,-5.9073 177.9375,-5.3762"/>
<polygon fill="#000000" stroke="#000000" points="172.6776,-5.2764 177.7195,-3.1217 175.1772,-5.3238 177.6767,-5.3713 177.6767,-5.3713 177.6767,-5.3713 175.1772,-5.3238 177.634,-7.6209 172.6776,-5.2764 172.6776,-5.2764"/>
<text text-anchor="start" x="193.803" y="-8.8" font-family="Courier,monospace" font-size="9.00" fill="#000000">1</text>
</g>
<!-- q3r2 -->
<g id="node8" class="node">
<title>q3r2</title>
<path fill="none" stroke="#000000" d="M286.173,-20C286.173,-20 246.827,-20 246.827,-20 244.1603,-20 241.4936,-17.3333 241.4936,-14.6667 241.4936,-14.6667 241.4936,-9.3333 241.4936,-9.3333 241.4936,-6.6667 244.1603,-4 246.827,-4 246.827,-4 286.173,-4 286.173,-4 288.8397,-4 291.5064,-6.6667 291.5064,-9.3333 291.5064,-9.3333 291.5064,-14.6667 291.5064,-14.6667 291.5064,-17.3333 288.8397,-20 286.173,-20"/>
<path fill="none" stroke="#000000" d="M287.5068,-24C287.5068,-24 245.4932,-24 245.4932,-24 241.4932,-24 237.4932,-20 237.4932,-16 237.4932,-16 237.4932,-8 237.4932,-8 237.4932,-4 241.4932,0 245.4932,0 245.4932,0 287.5068,0 287.5068,0 291.5068,0 295.5068,-4 295.5068,-8 295.5068,-8 295.5068,-16 295.5068,-16 295.5068,-20 291.5068,-24 287.5068,-24"/>
<text text-anchor="start" x="245.4966" y="-9" font-family="Courier,monospace" font-size="10.00" fill="#000000">(q3,r2)</text>
</g>
<!-- q3r2&#45;&gt;q2r1 -->
<g id="edge14" class="edge">
<title>q3r2&#45;&gt;q2r1</title>
<path fill="none" stroke="#000000" d="M237.1414,-19.2119C214.8262,-25.1764 186.4835,-33.9447 177.5,-42 169.2971,-49.3554 164.3763,-60.9794 161.6051,-69.9751"/>
<polygon fill="#000000" stroke="#000000" points="160.2133,-74.9157 159.4034,-69.4929 160.8912,-72.5094 161.5691,-70.103 161.5691,-70.103 161.5691,-70.103 160.8912,-72.5094 163.7348,-70.7131 160.2133,-74.9157 160.2133,-74.9157"/>
<text text-anchor="start" x="180.7996" y="-46.3" font-family="Courier,monospace" font-size="9.00" fill="#000000">0</text>
</g>
<!-- q3r2&#45;&gt;q2r2 -->
<g id="edge15" class="edge">
<title>q3r2&#45;&gt;q2r2</title>
<path fill="none" stroke="#000000" d="M237.1034,-12C219.0406,-12 195.9528,-12 177.7371,-12"/>
<polygon fill="#000000" stroke="#000000" points="172.7368,-12 177.7369,-9.7501 175.2368,-12 177.7368,-12.0001 177.7368,-12.0001 177.7368,-12.0001 175.2368,-12 177.7368,-14.2501 172.7368,-12 172.7368,-12"/>
<text text-anchor="start" x="202.7996" y="-19.3" font-family="Courier,monospace" font-size="9.00" fill="#000000">1</text>
</g>
</g>
</svg>
